<svg id="Layer_1" data-name="Layer 1" xmlns="http://www.w3.org/2000/svg" viewBox="0 0 32 32"><defs><style>.cls-1{fill:#fff;}.cls-2{fill:#0b62ab;}</style></defs><title>Favicon Nextinvoice-12-12</title><rect class="cls-1" width="32" height="32" rx="5" ry="5"/><path class="cls-2" d="M21,26.93l1.87-10.54a1.48,1.48,0,0,0,0-.28V15.86a1,1,0,0,0-1-1.12H18.81A1.71,1.71,0,0,0,17,16.42L15.19,26.93H11.51l2.81-16h9.2q3.24,0,3.24,3.43a9.41,9.41,0,0,1-.19,1.78l-1.9,10.79H21Z"/><polygon class="cls-2" points="5.24 26.93 8.05 10.93 11.79 10.93 8.98 26.93 5.24 26.93"/><path class="cls-2" d="M12.85,5.07L12.16,8.81H8.42l0.14-.74c1.86-.45,3.22-1.61,3.34-3h1Z"/></svg>